<svg xmlns="http://www.w3.org/2000/svg" version="1.1" xmlns:xlink="http://www.w3.org/1999/xlink" xmlns:svgjs="http://svgjs.dev/svgjs" width="1000" height="1000" viewBox="0 0 1000 1000"><rect width="1000" height="1000" fill="#000000"></rect><g transform="matrix(0.7,0,0,0.7,149.57575757575756,282.1265587044535)"><svg viewBox="0 0 396 247" data-background-color="#1b4571" preserveAspectRatio="xMidYMid meet" height="623" width="1000" xmlns="http://www.w3.org/2000/svg" xmlns:xlink="http://www.w3.org/1999/xlink"><g id="tight-bounds" transform="matrix(1,0,0,1,0.2400000000000091,-0.09999999999999432)"><svg viewBox="0 0 395.52 247.2" height="247.2" width="395.52"><g><svg></svg></g><g><svg viewBox="0 0 395.52 247.2" height="247.2" width="395.52"><g transform="matrix(1,0,0,1,75.54432,49.178696426332294)"><svg viewBox="0 0 244.43135999999998 148.8426071473354" height="148.8426071473354" width="244.43135999999998"><g><svg viewBox="0 0 244.43135999999998 148.8426071473354" height="148.8426071473354" width="244.43135999999998"><g><svg viewBox="0 0 244.43135999999998 148.8426071473354" height="148.8426071473354" width="244.43135999999998"><g><svg viewBox="0 0 244.43135999999998 148.8426071473354" height="148.8426071473354" width="244.43135999999998"><g><svg viewBox="0 0 244.43135999999998 148.8426071473354" height="148.8426071473354" width="244.43135999999998"><g><svg viewBox="0 0 244.43135999999998 148.8426071473354" height="148.8426071473354" width="244.43135999999998"><g transform="matrix(1,0,0,1,0,0)"><svg width="244.43135999999998" viewBox="-2.5999999046325684 -37.54999923706055 63.79999923706055 38.849998474121094" height="148.8426071473354" data-palette-color="#ffffff"><path d="M59.9-9Q61.2-8.25 61.2-6.3L61.2-6.3Q61.2-4.15 59.78-2.4 58.35-0.65 55.98 0.33 53.6 1.3 50.85 1.3L50.85 1.3Q46.1 1.3 44.15-1.7 42.2-4.7 42.2-10.5L42.2-10.5Q42.2-14.8 43-18.18 43.8-21.55 45.55-26.45L45.55-26.45Q40.45-18.8 33.45-5.75L33.45-5.75Q32.9-4.65 32.63-4 32.35-3.35 32.35-2.65L32.35-2.65 32.4-1.9Q32.4-1.4 31.95-1.3L31.95-1.3Q30.3-0.85 28.55 0.05L28.55 0.05Q27.55 0.5 27.4 0.5L27.4 0.5Q27.2 0.5 27.03 0.28 26.85 0.05 26.8-0.2L26.8-0.2Q27.5-0.65 27.5-2.85L27.5-2.85Q27.5-5 26.93-9.55 26.35-14.1 25.4-20.85L25.4-20.85Q22.65-14.2 19.88-9.43 17.1-4.65 13.58-1.73 10.05 1.2 5.75 1.2L5.75 1.2Q2.35 1.2-0.13-0.65-2.6-2.5-2.6-6.1L-2.6-6.1Q-2.6-8-1.9-9.93-1.2-11.85-0.03-13.1 1.15-14.35 2.6-14.35L2.6-14.35Q3.05-14.35 3.55-14.18 4.05-14 4.6-13.8L4.6-13.8Q3.15-12.35 2.25-10.2 1.35-8.05 1.35-6L1.35-6Q1.35-3.65 2.58-2.48 3.8-1.3 6.05-1.3L6.05-1.3Q9.8-1.3 12.95-4.4 16.1-7.5 18.82-12.93 21.55-18.35 24.45-26.5L24.45-26.5Q23.95-29.15 23.7-30.25L23.7-30.25Q22.9-34.05 22.9-34.55L22.9-34.55Q22.9-35.45 23.73-35.85 24.55-36.25 25.85-36.25L25.85-36.25Q27.55-36.25 28.25-35.5 28.95-34.75 28.95-33.1L28.95-33.1Q28.95-30.45 28.35-27.15L28.35-27.15Q28.6-24.2 30-16.7L30-16.7Q30.15-15.9 30.73-12.88 31.3-9.85 31.55-7.6L31.55-7.6Q36.05-16.1 39.1-21.33 42.15-26.55 45.2-31.3L45.2-31.3Q47-34.1 47.9-35.35 48.8-36.6 49.45-37.08 50.1-37.55 50.8-37.55L50.8-37.55Q52.45-37.55 53.95-35.35L53.95-35.35Q52.95-34.95 51.95-33.73 50.95-32.5 50.15-30.5L50.15-30.5Q48.85-27.25 47.93-21.65 47-16.05 47-11.8L47-11.8Q47-1.9 52.8-1.9L52.8-1.9Q55.45-1.9 57.23-3.85 59-5.8 59.9-9L59.9-9Z" opacity="1" transform="matrix(1,0,0,1,0,0)" fill="#ffffff" class="undefined-text-0" data-fill-palette-color="primary" id="text-0"></path></svg></g></svg></g></svg></g></svg></g><g></g></svg></g></svg></g></svg></g><g><path d="M167.169 14.041A122.216 122.216 0 0 1 228.351 14.041L214.928 14.041A108.793 108.793 0 0 0 180.592 14.041L167.169 14.041M167.169 233.159A122.216 122.216 0 0 0 228.351 233.159L214.928 233.159A108.793 108.793 0 0 1 180.592 233.159L167.169 233.159" fill="#ffffff" stroke="transparent" data-fill-palette-color="tertiary"></path></g></svg></g><defs></defs></svg><rect width="395.52" height="247.2" fill="none" stroke="none" visibility="hidden"></rect></g></svg></g></svg>